<svg width="81" height="81" viewBox="0 0 81 81" fill="none" xmlns="http://www.w3.org/2000/svg">
<mask id="mask0" mask-type="alpha" maskUnits="userSpaceOnUse" x="0" y="0" width="81" height="81">
<rect x="0.697388" y="0.0543213" width="80" height="80" rx="18" fill="#1DA1F2"/>
</mask>
<g mask="url(#mask0)">
<path d="M77.7818 0.0543213H3.90924C2.13268 0.0543213 0.697388 1.48432 0.697388 3.25432V76.8543C0.697388 78.6244 2.13268 80.0543 3.90924 80.0543H77.7818C79.5584 80.0543 80.9937 78.6244 80.9937 76.8543V3.25432C80.9937 1.48432 79.5584 0.0543213 77.7818 0.0543213ZM62.4553 29.0244C62.4854 29.4943 62.4854 29.9844 62.4854 30.4644C62.4854 45.1444 51.2641 62.0543 30.7583 62.0543C24.435 62.0543 18.5734 60.2244 13.6351 57.0744C14.5385 57.1743 15.4017 57.2143 16.3251 57.2143C21.5444 57.2143 26.342 55.4543 30.1661 52.4744C25.2681 52.3743 21.1528 49.1743 19.7476 44.7743C21.4641 45.0244 23.0097 45.0244 24.7762 44.5743C22.2541 44.0638 19.9874 42.6992 18.3607 40.7122C16.7341 38.7252 15.8482 36.2383 15.8533 33.6744V33.5343C17.3287 34.3643 19.0652 34.8744 20.8818 34.9444C19.3547 33.9302 18.1022 32.5565 17.2355 30.9446C16.3689 29.3328 15.9148 27.5328 15.9135 25.7044C15.9135 23.6344 16.4555 21.7444 17.4291 20.1044C20.2284 23.5377 23.7217 26.3457 27.6816 28.346C31.6415 30.3462 35.9796 31.4939 40.414 31.7144C38.8381 24.1643 44.499 18.0543 51.304 18.0543C54.5159 18.0543 57.4067 19.3944 59.4442 21.5544C61.9635 21.0843 64.3723 20.1444 66.5204 18.8843C65.6872 21.4543 63.9408 23.6244 61.6223 24.9944C63.8704 24.7544 66.0384 24.1343 68.0458 23.2644C66.5303 25.4843 64.6334 27.4543 62.4553 29.0244Z" fill="#1DA1F2"/>
</g>
</svg>
