<svg width="81" height="81" viewBox="0 0 81 81" fill="none" xmlns="http://www.w3.org/2000/svg">
<mask id="mask0" mask-type="alpha" maskUnits="userSpaceOnUse" x="0" y="0" width="81" height="81">
<rect x="0.0922852" y="0.0543213" width="80" height="80" rx="18" fill="#AD0F00"/>
</mask>
<g mask="url(#mask0)">
<path fill-rule="evenodd" clip-rule="evenodd" d="M3.84543 0.0543213C1.78281 0.0543213 0.110718 1.72024 0.110718 3.77525V76.3334C0.110718 78.3885 1.78281 80.0543 3.84543 80.0543H76.6723C78.735 80.0543 80.407 78.3885 80.407 76.3334V3.77525C80.407 1.72024 78.735 0.0543213 76.6723 0.0543213H3.84543ZM50.9885 39.7689L33.7491 29.5434V49.9942L50.9885 39.7689ZM72.0668 23.1172C73.4431 28.5228 73.4431 39.7877 73.4431 39.7877C73.4431 39.7877 73.4431 51.0526 72.0668 56.4394C71.3063 59.4259 69.0791 61.675 66.236 62.4688C61.1113 63.9243 40.4856 63.9243 40.4856 63.9243C40.4856 63.9243 19.8599 63.9243 14.7352 62.4878C11.8921 61.6939 9.66474 59.4446 8.90419 56.4584C7.52795 51.0526 7.52795 39.7877 7.52795 39.7877C7.52795 39.7877 7.52795 28.504 8.90419 23.1172C9.66474 20.1308 11.8921 17.7871 14.7352 16.9933C19.8599 15.5379 40.4856 15.5379 40.4856 15.5379C40.4856 15.5379 61.1113 15.5379 66.236 16.9933C69.0791 17.7871 71.3063 20.1308 72.0668 23.1172Z" fill="#AD0F00"/>
</g>
</svg>
