<svg width="81" height="81" viewBox="0 0 81 81" fill="none" xmlns="http://www.w3.org/2000/svg">
<mask id="mask0" mask-type="alpha" maskUnits="userSpaceOnUse" x="0" y="0" width="81" height="81">
<rect y="0.0543213" width="81" height="80" rx="18" fill="#3B5998"/>
</mask>
<g mask="url(#mask0)">
<path d="M78.048 0.0543213H3.252C1.45324 0.0543213 0 1.48432 0 3.25432V76.8543C0 78.6244 1.45324 80.0543 3.252 80.0543H78.048C79.8468 80.0543 81.3 78.6244 81.3 76.8543V3.25432C81.3 1.48432 79.8468 0.0543213 78.048 0.0543213ZM68.6578 23.4043H62.1641C57.0726 23.4043 56.0868 25.7844 56.0868 29.2843V36.9942H68.2411L66.6558 49.0644H56.0868V80.0543H43.4142V49.0744H32.8148V36.9942H43.4142V28.0943C43.4142 17.7643 49.8267 12.1343 59.1966 12.1343C63.6883 12.1343 67.5399 12.4643 68.6681 12.6143V23.4043H68.6578Z" fill="#3B5998"/>
</g>
</svg>
