<svg width="81" height="81" viewBox="0 0 81 81" fill="none" xmlns="http://www.w3.org/2000/svg">
<mask id="mask0" mask-type="alpha" maskUnits="userSpaceOnUse" x="0" y="0" width="81" height="81">
<rect x="0.394775" y="0.0543213" width="80" height="80" rx="18" fill="#C13584"/>
</mask>
<g mask="url(#mask0)">
<path fill-rule="evenodd" clip-rule="evenodd" d="M2.84005 0.0543213C0.775138 0.0543213 -0.898804 1.72024 -0.898804 3.77525V76.3334C-0.898804 78.3885 0.775138 80.0543 2.84005 80.0543H77.6171C79.6821 80.0543 81.3559 78.3885 81.3559 76.3334V3.77525C81.3559 1.72024 79.6821 0.0543213 77.6171 0.0543213H2.84005ZM36.263 31.6526C37.8729 30.6056 39.7661 30.0463 41.7028 30.0458C44.3002 30.0467 46.791 31.0504 48.6281 32.8363C50.4652 34.6223 51.498 37.0445 51.4999 39.5706C51.4999 41.4543 50.9256 43.2958 49.8498 44.8621C48.7737 46.4285 47.2445 47.6493 45.4551 48.3702C43.6659 49.0913 41.6968 49.2802 39.7973 48.9129C37.8976 48.5457 36.1527 47.6389 34.7827 46.3072C33.413 44.9754 32.48 43.2785 32.1016 41.4311C31.7234 39.5836 31.9167 37.6686 32.6576 35.9282C33.3982 34.1875 34.6528 32.6997 36.263 31.6526ZM62.3882 19.4452C63.3487 20.3793 64.1015 21.4954 64.6001 22.7243L64.6076 22.7261C65.9229 25.9544 65.8502 32.9834 65.8029 37.5403C65.7952 38.2941 65.7881 38.9805 65.7881 39.5706C65.7881 40.1607 65.7952 40.8473 65.8029 41.6015C65.8502 46.1606 65.9229 53.1976 64.6076 56.4153C64.109 57.6441 63.356 58.7604 62.3957 59.6945C61.4351 60.6286 60.2875 61.3607 59.0241 61.8458C55.708 63.1259 48.4935 63.0549 43.8065 63.0086C43.0282 63.0009 42.3197 62.9939 41.7103 62.9939C41.1121 62.9939 40.4183 63.0004 39.6569 63.0074C34.9688 63.0513 27.7115 63.1193 24.3945 61.8458C23.131 61.3607 21.9833 60.6286 21.023 59.6945C20.0625 58.7604 19.3097 57.6441 18.8111 56.4153C17.4956 53.1753 17.5648 46.1059 17.6094 41.5501C17.6166 40.8154 17.6231 40.1462 17.6231 39.5689C17.6231 38.9898 17.6165 38.318 17.6093 37.5803C17.5646 33.0225 17.4952 25.9518 18.8036 22.7243C19.3022 21.4954 20.0552 20.3793 21.0155 19.4452C21.9761 18.511 23.1237 17.7788 24.3871 17.2939C27.7032 16.0136 34.9209 16.0848 39.6074 16.131C40.3854 16.1387 41.0937 16.1457 41.7028 16.1457C42.3006 16.1457 42.994 16.1392 43.7552 16.1321C48.4423 16.0883 55.6998 16.0204 59.0167 17.2939C60.2802 17.7788 61.4279 18.511 62.3882 19.4452ZM33.3384 51.7459C35.8143 53.3548 38.7252 54.2136 41.7028 54.2136C43.6806 54.2158 45.6394 53.8387 47.4672 53.1036C49.2949 52.3687 50.9555 51.2902 52.354 49.93C53.7526 48.5699 54.8615 46.9546 55.6173 45.1771C56.3731 43.3994 56.7608 41.4943 56.7584 39.5706C56.7584 36.6746 55.8755 33.8435 54.221 31.4355C52.5668 29.0275 50.2154 27.1507 47.4644 26.0424C44.7133 24.9341 41.6862 24.6443 38.7657 25.2091C35.8451 25.7741 33.1625 27.1687 31.057 29.2166C28.9514 31.2644 27.5174 33.8735 26.9366 36.714C26.3557 39.5544 26.6537 42.4986 27.7933 45.1743C28.9329 47.8499 30.8626 50.1367 33.3384 51.7459ZM55.4261 27.1563C56.0043 27.5315 56.6838 27.7317 57.3791 27.7313L57.3863 27.7386C57.8479 27.7382 58.305 27.6495 58.7312 27.477C59.1574 27.3046 59.5444 27.0521 59.8701 26.7339C60.1957 26.4156 60.4535 26.0381 60.6289 25.6227C60.804 25.2074 60.8932 24.7624 60.8913 24.3135C60.8913 23.6374 60.6851 22.9766 60.2989 22.4145C59.9127 21.8525 59.3638 21.4143 58.7215 21.1557C58.0793 20.8971 57.3727 20.8294 56.6909 20.9615C56.0091 21.0936 55.3831 21.4192 54.8916 21.8973C54.4001 22.3756 54.0657 22.9847 53.9303 23.6478C53.7948 24.3109 53.8647 24.9983 54.1309 25.6227C54.3973 26.2473 54.848 26.7808 55.4261 27.1563ZM66.1278 63.3207C69.563 59.9885 70.637 55.9332 70.8739 51.3565C71.1474 46.635 71.1474 32.5064 70.8739 27.8063C70.6499 23.2296 69.5556 19.1725 66.1278 15.8332C62.6998 12.4939 58.5319 11.4475 53.8262 11.2171C48.9773 10.951 34.4395 10.951 29.5904 11.2171C24.903 11.435 20.737 12.4885 17.289 15.8207C13.8409 19.1527 12.7797 23.2082 12.5428 27.7849C12.2692 32.4975 12.2692 46.6385 12.5428 51.3565C12.7668 55.9243 13.8482 59.9814 17.289 63.3207C20.7297 66.6599 24.8847 67.7064 29.5904 67.9367C34.4395 68.2028 48.9773 68.2028 53.8262 67.9367C58.5265 67.7189 62.6925 66.6528 66.1278 63.3207Z" fill="#C13584"/>
</g>
</svg>
