<?xml version="1.0" standalone="no"?>
<!DOCTYPE svg PUBLIC "-//W3C//DTD SVG 20010904//EN"
 "http://www.w3.org/TR/2001/REC-SVG-20010904/DTD/svg10.dtd">
<svg version="1.0" xmlns="http://www.w3.org/2000/svg"
 width="1016.000000pt" height="1016.000000pt" viewBox="0 0 1016.000000 1016.000000"
 preserveAspectRatio="xMidYMid meet">
<metadata>
Created by potrace 1.11, written by Peter Selinger 2001-2013
</metadata>
<g transform="translate(0.000000,1016.000000) scale(0.100000,-0.100000)"
fill="#000000" stroke="none">
<path d="M4427 7953 c-1 -1 -191 -4 -422 -7 -231 -4 -521 -9 -645 -12 -124 -3
-308 -7 -410 -9 -102 -2 -185 -4 -185 -5 0 -1 -75 -3 -166 -5 -286 -7 -408
-14 -429 -25 -11 -6 -20 -8 -20 -5 0 7 -107 -48 -153 -79 -21 -14 -40 -26 -42
-26 -2 0 -55 -32 -117 -71 -62 -40 -122 -77 -133 -83 -57 -33 -282 -178 -302
-196 -7 -5 -14 -10 -17 -10 -8 0 -191 -124 -194 -132 -2 -4 -10 -8 -18 -8 -8
0 -14 -4 -14 -10 0 -5 -4 -10 -10 -10 -5 0 -53 -31 -107 -68 -54 -38 -136 -95
-183 -127 -47 -32 -86 -62 -88 -67 -2 -4 -10 -8 -17 -8 -7 0 -15 -3 -17 -8 -1
-4 -34 -30 -73 -57 -38 -27 -71 -53 -73 -57 -2 -4 -10 -8 -18 -8 -8 0 -14 -3
-14 -7 -1 -5 -24 -24 -51 -43 -83 -58 -153 -115 -174 -145 -11 -15 -25 -32
-30 -39 -13 -14 -44 -84 -50 -113 -3 -13 -7 -31 -9 -42 -2 -10 -7 -34 -10 -52
-10 -57 -16 -92 -27 -146 -6 -29 -8 -57 -4 -63 3 -5 2 -10 -3 -10 -5 0 -9 -6
-9 -12 0 -7 -3 -31 -6 -53 -3 -22 -11 -71 -16 -110 -6 -38 -12 -79 -15 -90 -4
-24 -18 -120 -21 -155 -3 -34 -16 -129 -20 -149 -1 -9 -6 -47 -9 -86 -4 -38
-9 -83 -11 -100 -3 -16 -7 -57 -11 -90 -3 -33 -7 -76 -9 -95 -2 -19 -6 -64 -9
-100 -3 -36 -7 -90 -10 -120 -12 -136 -25 -320 -31 -440 -15 -297 -18 -393
-19 -560 -1 -135 3 -194 13 -220 24 -63 75 -173 135 -295 33 -66 60 -122 61
-125 6 -17 19 -46 25 -50 3 -3 23 -39 44 -80 21 -41 45 -82 52 -90 7 -8 14
-19 15 -25 2 -11 23 -47 50 -87 11 -15 19 -30 19 -33 0 -4 72 -124 100 -165 5
-8 37 -55 70 -104 33 -48 60 -92 60 -96 0 -5 3 -10 8 -12 4 -1 34 -41 67 -87
58 -80 129 -151 154 -151 6 0 11 -4 11 -9 0 -10 111 -44 155 -47 166 -13 965
-20 1090 -10 69 6 163 49 245 113 28 22 104 78 253 186 82 60 156 114 165 122
15 12 119 90 187 139 23 17 43 33 81 64 5 5 29 22 52 37 23 15 42 32 42 36 0
5 4 9 10 9 5 0 18 6 27 14 28 23 178 139 208 160 14 11 36 28 48 38 26 21 20
16 132 103 50 38 92 72 95 75 21 23 99 65 152 82 60 19 87 20 543 18 522 -1
752 -4 1150 -15 143 -4 315 -8 382 -9 68 0 123 -3 123 -6 0 -3 42 -6 93 -6 87
-1 362 -11 362 -14 0 0 34 -2 75 -4 41 -2 90 -9 108 -14 47 -15 131 -66 177
-108 155 -141 192 -174 298 -263 48 -41 87 -79 87 -84 0 -6 2 -8 5 -5 6 5 44
-23 92 -69 13 -13 28 -23 33 -23 4 0 10 -4 12 -8 3 -8 155 -130 238 -192 35
-27 99 -75 115 -88 6 -4 26 -18 45 -32 19 -13 37 -27 40 -30 8 -10 272 -186
312 -208 78 -44 120 -50 363 -46 257 3 325 6 695 29 163 10 219 17 270 32 30
9 57 20 60 23 3 4 16 13 30 20 39 21 151 112 229 188 24 23 48 42 52 42 5 0 9
4 9 8 0 4 15 23 33 42 29 32 74 112 92 165 10 30 14 69 20 195 2 63 5 115 6
115 0 0 2 34 4 75 2 41 7 122 10 180 18 349 30 656 50 1235 11 322 22 941 26
1435 2 299 0 318 -44 410 -22 46 -100 130 -171 185 -21 17 -46 37 -55 45 -9 8
-33 27 -53 42 -20 15 -43 35 -52 44 -9 8 -16 13 -16 9 0 -3 -10 4 -22 17 -13
13 -33 30 -44 38 -12 8 -84 62 -160 120 -185 139 -192 145 -466 330 -131 88
-242 160 -248 160 -5 0 -10 5 -10 10 0 6 -4 10 -10 10 -5 0 -41 20 -80 45 -39
25 -73 45 -76 45 -3 0 -20 11 -38 25 -18 14 -35 25 -38 25 -3 0 -60 31 -126
69 -281 162 -322 177 -484 176 -54 0 -98 2 -98 5 0 3 -62 6 -138 6 -75 1 -270
4 -432 8 -606 14 -1009 18 -1883 19 -494 1 -899 1 -900 0z"/>
</g>
</svg>
