<?xml version="1.0" encoding="UTF-8" standalone="no"?>
<!DOCTYPE svg PUBLIC "-//W3C//DTD SVG 1.1//EN" "http://www.w3.org/Graphics/SVG/1.1/DTD/svg11.dtd">
<svg width="100%" height="100%" viewBox="0 0 1792 1792" version="1.1" xmlns="http://www.w3.org/2000/svg" xmlns:xlink="http://www.w3.org/1999/xlink" xml:space="preserve" xmlns:serif="http://www.serif.com/" style="fill-rule:evenodd;clip-rule:evenodd;stroke-linejoin:round;stroke-miterlimit:2;">
    <g transform="matrix(-5.58384e-17,-0.911911,-0.911911,5.58384e-17,1805.63,1713.07)">
        <path d="M1683,1331L1517,1496C1504.33,1508.67 1489.33,1515 1472,1515C1454.67,1515 1439.67,1508.67 1427,1496L896,965L365,1496C352.333,1508.67 337.333,1515 320,1515C302.667,1515 287.667,1508.67 275,1496L109,1331C96.333,1318.33 90,1303.17 90,1285.5C90,1267.83 96.333,1252.67 109,1240L851,499C863.667,486.333 878.667,480 896,480C913.333,480 928.333,486.333 941,499L1683,1240C1695.67,1252.67 1702,1267.83 1702,1285.5C1702,1303.17 1695.67,1318.33 1683,1331Z" style="fill:white;fill-rule:nonzero;"/>
    </g>
</svg>
